<!-- Generator: Adobe Illustrator 21.1.0, SVG Export Plug-In  -->
<svg version="1.1"
	 xmlns="http://www.w3.org/2000/svg" xmlns:xlink="http://www.w3.org/1999/xlink" xmlns:a="http://ns.adobe.com/AdobeSVGViewerExtensions/3.0/"
	 x="0px" y="0px" width="195.2px" height="79.5px" viewBox="0 0 195.2 79.5" style="enable-background:new 0 0 195.2 79.5;"
	 xml:space="preserve">
<style type="text/css">
	.st0{opacity:0.14;}
	.st1{fill:#202020;}
	.st2{fill:#FFFFFF;}
</style>
<defs>
</defs>
<g>
	<g class="st0">
		<g>
			<g>
				<path d="M1.5,9.2c4.7,19.5,6.6,42.2,4.2,61.9C5.5,72,5.5,73,6.2,73.7c1.1,1,3.2,1.1,5,1.1c58.6,0.6,117.3,1.1,175.9,1.7
					c1.1,0,2.4,0,3.2-0.6c0.7-0.6,0.5-1.4,0.4-2.1c-2.1-10.3,1.6-50.1,1.6-59.8c0-1.2-0.9-5.2-3.7-5.3C124.3,8.6,64.2,6.8,0,9.1"/>
				<g>
					<g>
						<path class="st1" d="M1.5,9.2c-0.1,3.9-0.1,7.1,0,10.4c0.1,3.3,0.4,6.8,0.9,11.2C2.6,32,2.7,33.8,3,36
							c0.1,1.1,0.2,2.3,0.3,3.6l0.1,0.7l0.1,1.2c0,0.8,0.1,1.6,0.1,2.3c0.1,1.6,0.1,3.2,0.2,4.8c0.1,3.2,0.1,6.6,0,10
							C3.6,62,3.3,65.4,2.9,69l-0.1,1.3L2.7,71c0,0.1,0,0.4-0.1,0.6c0,0.2,0,0.5,0,0.7c0,0.9,0.3,1.8,0.7,2.6
							c0.5,0.8,1.1,1.4,1.9,1.9c0.8,0.5,1.8,0.8,2.3,0.8c0.6,0.1,1.2,0.2,1.7,0.2c1.1,0.1,2.1,0.1,3,0.1c7.5,0.1,15.1,0.1,22.9,0.2
							c15.6,0.1,31.6,0.3,47.3,0.4c31.3,0.3,61.2,0.6,83.3,0.8c5.5,0.1,10.6,0.1,15,0.1c2.2,0,4.3,0,6.2,0.1c0.3,0,0.5,0,0.8,0
							c0.5,0,0.9,0,1.4-0.1c0.9-0.1,1.7-0.4,2.4-0.8c0.7-0.4,1.2-1,1.6-1.7c0.4-0.7,0.5-1.4,0.5-2.1c0-0.4,0-0.8-0.1-1.1
							c0-0.2-0.1-0.4-0.1-0.6l-0.1-0.4c0-0.3-0.1-0.6-0.1-0.9c-0.1-0.6-0.1-1.3-0.2-1.8c-0.1-1.1-0.1-2.2-0.1-3
							c-0.1-1.6,0-2.5,0-2.5s0-0.9,0-3.2c0-2.2,0.1-5.8,0.3-11.1c0.2-5.3,0.6-12.3,1.2-21.5c0.1-2.3,0.3-4.7,0.4-7.3
							c0.1-1.3,0.1-2.6,0.2-4c0-0.7,0.1-1.4,0.1-2.1c0-0.4,0-0.7,0-1.1c0-0.6-0.1-1.1-0.2-1.6c-0.2-0.9-0.5-1.8-0.9-2.8
							c-0.5-0.9-1.1-2-2.4-2.9c-0.6-0.4-1.3-0.7-2.1-0.9c-0.4-0.1-0.8-0.1-1.1-0.1l-0.6,0c-0.8,0-1.5,0-2.3,0c-3.1,0-6.4,0-9.9,0
							c-8.7-0.1-23.6-0.2-41.7-0.4C116.1,5.2,94.9,5,73.8,5C63.2,5,52.6,5,42.5,5.2c-4.3,0.1-8.4,0.1-12.1,0.2
							c-3.8,0.1-7,0.2-8.8,0.2C12.5,5.8,7.4,7,0,9.1c7.6,1.6,12.7,2.5,21.7,2.3c1.8,0,5-0.1,8.8-0.2c3.8-0.1,7.9-0.1,12.1-0.2
							c10.1-0.1,20.7-0.2,31.2-0.2c21.1,0,42.2,0.2,60.3,0.4c18,0.2,33,0.3,41.7,0.4c3.5,0,6.7,0,9.9,0c0.8,0,1.6,0,2.3,0l0.6,0
							c0,0,0,0,0,0c0,0,0,0,0,0c-0.1,0,0.2,0.2,0.4,0.6c0.2,0.4,0.3,0.9,0.4,1.3c0,0.2,0.1,0.4,0.1,0.5c0,0.3,0,0.7,0,1
							c0,0.7,0,1.3-0.1,2c-0.1,1.3-0.1,2.6-0.2,3.9c-0.1,2.6-0.3,5-0.4,7.2c-0.6,9.1-1,16.2-1.2,21.6c-0.2,5.3-0.3,9-0.3,11.3
							c0,2.3,0,3.3,0,3.3s0,0.9,0,2.6c0,0.9,0,1.9,0.2,3.2c0.1,0.7,0.1,1.3,0.2,2.1c0.1,0.4,0.1,0.8,0.2,1.2l0,0.2c0,0.1,0,0,0,0
							l0,0l0,0c-5.2,0-12.7-0.1-21.8-0.2c-22.1-0.2-52-0.5-83.3-0.8c-15.7-0.2-31.7-0.3-47.3-0.5c-7.8-0.1-15.5-0.1-22.9-0.2
							c-1,0-1.9,0-2.6-0.1c-0.7,0-1.5-0.3-1.3-0.2c0,0,0,0,0,0c0.1-0.7,0.2-1.4,0.2-2.1c0.4-3.7,0.7-7.3,0.8-10.8
							c0.1-3.5,0.1-7,0-10.3c0-1.7-0.1-3.3-0.2-5c-0.1-0.8-0.1-1.6-0.1-2.4l-0.1-1.2l-0.1-0.7c-0.1-1.3-0.2-2.6-0.3-3.7
							c-0.2-2.3-0.4-4.1-0.6-5.4c-0.6-4.5-1.4-8-2.5-11.3C4.6,15.6,3.2,12.6,1.5,9.2z"/>
					</g>
				</g>
			</g>
		</g>
	</g>
	<g>
		<g>
			<g>
				<path class="st2" d="M1.5,4.2c4.7,19.5,6.6,42.2,4.2,61.9C5.5,67,5.5,68,6.2,68.7c1.1,1,3.2,1.1,5,1.1
					c58.6,0.6,117.3,1.1,175.9,1.7c1.1,0,2.4,0,3.2-0.6c0.7-0.6,0.5-1.4,0.4-2.1c-2.1-10.3,1.6-50.1,1.6-59.8c0-1.2-0.9-5.2-3.7-5.3
					C124.3,3.6,64.2,1.8,0,4.1"/>
				<g>
					<g>
						<path class="st1" d="M1.5,4.2c-0.1,3.9-0.1,7.1,0,10.4c0.1,3.3,0.4,6.8,0.9,11.2C2.6,27,2.7,28.8,3,31
							c0.1,1.1,0.2,2.3,0.3,3.6l0.1,0.7l0.1,1.2c0,0.8,0.1,1.6,0.1,2.3c0.1,1.6,0.1,3.2,0.2,4.8c0.1,3.2,0.1,6.6,0,10
							C3.6,57,3.3,60.4,2.9,63.9l-0.1,1.3L2.7,66c0,0.1,0,0.4-0.1,0.6c0,0.2,0,0.5,0,0.7c0,0.9,0.3,1.8,0.7,2.6
							c0.5,0.8,1.1,1.4,1.9,1.9c0.8,0.5,1.8,0.8,2.3,0.8c0.6,0.1,1.2,0.2,1.7,0.2c1.1,0.1,2.1,0.1,3,0.1c7.5,0.1,15.1,0.1,22.9,0.2
							c15.6,0.1,31.6,0.3,47.3,0.4c31.3,0.3,61.2,0.6,83.3,0.8c5.5,0.1,10.6,0.1,15,0.1c2.2,0,4.3,0,6.2,0.1c0.3,0,0.5,0,0.8,0
							c0.5,0,0.9,0,1.4-0.1c0.9-0.1,1.7-0.4,2.4-0.8c0.7-0.4,1.2-1,1.6-1.7c0.4-0.7,0.5-1.4,0.5-2.1c0-0.4,0-0.8-0.1-1.1
							c0-0.2-0.1-0.4-0.1-0.6l-0.1-0.4c0-0.3-0.1-0.6-0.1-0.9c-0.1-0.6-0.1-1.3-0.2-1.8c-0.1-1.1-0.1-2.2-0.1-3
							c-0.1-1.6,0-2.5,0-2.5s0-0.9,0-3.2c0-2.2,0.1-5.8,0.3-11.1c0.2-5.3,0.6-12.3,1.2-21.5c0.1-2.3,0.3-4.7,0.4-7.3
							c0.1-1.3,0.1-2.6,0.2-4c0-0.7,0.1-1.4,0.1-2.1c0-0.4,0-0.7,0-1.1c0-0.6-0.1-1.1-0.2-1.6c-0.2-0.9-0.5-1.8-0.9-2.8
							c-0.5-0.9-1.1-2-2.4-2.9c-0.6-0.4-1.3-0.7-2.1-0.9c-0.4-0.1-0.8-0.1-1.1-0.1l-0.6,0c-0.8,0-1.5,0-2.3,0c-3.1,0-6.4,0-9.9,0
							c-8.7-0.1-23.6-0.2-41.7-0.4C116.1,0.2,94.9,0,73.8,0C63.2,0,52.6,0,42.5,0.2c-4.3,0.1-8.4,0.1-12.1,0.2
							c-3.8,0.1-7,0.2-8.8,0.2C12.5,0.8,7.4,2,0,4.1c7.6,1.6,12.7,2.5,21.7,2.3c1.8,0,5-0.1,8.8-0.2c3.8-0.1,7.9-0.1,12.1-0.2
							c10.1-0.1,20.7-0.2,31.2-0.2c21.1,0,42.2,0.2,60.3,0.4c18,0.2,33,0.3,41.7,0.4c3.5,0,6.7,0,9.9,0c0.8,0,1.6,0,2.3,0l0.6,0
							c0,0,0,0,0,0c0,0,0,0,0,0c-0.1,0,0.2,0.2,0.4,0.6c0.2,0.4,0.3,0.9,0.4,1.3c0,0.2,0.1,0.4,0.1,0.5c0,0.3,0,0.7,0,1
							c0,0.7,0,1.3-0.1,2c-0.1,1.3-0.1,2.6-0.2,3.9c-0.1,2.6-0.3,5-0.4,7.2c-0.6,9.1-1,16.2-1.2,21.6c-0.2,5.3-0.3,9-0.3,11.3
							c0,2.3,0,3.3,0,3.3s0,0.9,0,2.6c0,0.9,0,1.9,0.2,3.2c0.1,0.7,0.1,1.3,0.2,2.1c0.1,0.4,0.1,0.8,0.2,1.2l0,0.2c0,0.1,0,0,0,0
							l0,0l0,0c-5.2,0-12.7-0.1-21.8-0.2c-22.1-0.2-52-0.5-83.3-0.8c-15.7-0.2-31.7-0.3-47.3-0.5c-7.8-0.1-15.5-0.1-22.9-0.2
							c-1,0-1.9,0-2.6-0.1c-0.7,0-1.5-0.3-1.3-0.2c0,0,0,0,0,0c0.1-0.7,0.2-1.4,0.2-2.1c0.4-3.7,0.7-7.3,0.8-10.8
							c0.1-3.5,0.1-7,0-10.3c0-1.7-0.1-3.3-0.2-5c-0.1-0.8-0.1-1.6-0.1-2.4l-0.1-1.2l-0.1-0.7c-0.1-1.3-0.2-2.6-0.3-3.7
							c-0.2-2.3-0.4-4.1-0.6-5.4c-0.6-4.5-1.4-8-2.5-11.3C4.6,10.6,3.2,7.6,1.5,4.2z"/>
					</g>
				</g>
			</g>
		</g>
	</g>
</g>
<g>
	<g>
		<g>
			<g>
				<path class="st1" d="M81.4,24.6c-3.1-4.1-7-6.9-11.4-8.8c-2.2-1-4.6-1.7-7.3-2.1c-2.7-0.4-5.7-0.5-9-0.1c-0.6,0.1-1.2,0.2-2,0.3
					c-0.8,0.1-1.6,0.3-2.8,0.6c-1.1,0.4-2.6,0.8-4.4,2.2c-1.7,1.3-3,3.3-3.7,5.5c-0.9,2.5-1.3,6.2-0.4,9.6c0.4,1.7,1,3.4,1.8,5
					c0.7,1.6,1.6,3,2.4,4.3c1.7,2.6,3.5,4.8,4.8,6.3c1.3,1.5,2.1,2.4,2.1,2.4s0.7,0.8,1.9,2c1.2,1.2,2.9,3,5.1,4.7
					c1.1,0.9,2.3,1.7,3.6,2.6c1.3,0.8,2.6,1.6,4.1,2.2c3,1.3,6.2,2.1,9.4,1.7c1.6-0.2,3.2-0.7,4.6-1.5c1.4-0.8,2.6-1.9,3.4-3.1
					c1.7-2.4,2.2-4.6,2.4-6.5c0.1-0.9,0.1-1.8,0.1-2.6c0-0.7-0.1-1.4-0.1-2.1c-0.2-1.3-0.3-2.3-0.5-3.1c-0.7-3.4-1.9-6.2-3.3-8.5
					c-1.4-2.4-3-4.3-4.6-6c-3.4-3.4-7.1-5.8-11.8-8.1C68.8,26,71,29.6,73,33.3c1,1.9,1.9,3.8,2.8,5.8c0.8,2.1,1.6,4.3,2.1,6.8
					c0.2,0.6,0.2,1.4,0.3,2.3c0,0.5,0,1,0.1,1.5c0,0.5,0,1-0.1,1.5c-0.1,1-0.4,2.1-1,2.8c-0.5,0.7-1.2,1.2-2.5,1.3
					c-0.6,0.1-1.5,0-2.4-0.1c-0.9-0.2-1.9-0.5-3-1c-1-0.4-2.1-1.1-3.1-1.7c-1-0.6-2-1.3-2.9-2.1c-1.8-1.4-3.3-2.9-4.3-4
					c-1.1-1.1-1.7-1.8-1.7-1.8s-0.8-0.8-1.9-2.3c-1.2-1.4-2.7-3.3-4.2-5.5c-0.7-1.1-1.4-2.2-1.9-3.4c-0.6-1.2-1-2.3-1.2-3.4
					c-0.5-2.2-0.3-4,0.1-5.3c0.4-1.1,0.8-1.6,1.2-1.9c0.4-0.3,1-0.6,1.7-0.8c0.7-0.2,1.4-0.4,2-0.5c0.6-0.1,1.1-0.2,1.6-0.3
					c5.3-0.7,9.6-0.5,13.7-0.1c2.1,0.2,4.1,0.6,6.2,1.1C76.8,22.9,79,23.5,81.4,24.6z"/>
			</g>
		</g>
	</g>
	<g>
		<g>
			<g>
				<path class="st1" d="M95.4,18.1c-1.7,2.6-2.6,4.1-2,6.2c0.3,1.1,1.4,4.4,2.4,7.4c0.9,3,1.7,5.8,1.7,5.8s0.8,2.8,1.5,5.9
					c0.8,3.1,1.5,6.5,1.8,7.6c0.5,2.1,2.1,3,4.8,4.3c2.1-2.2,3.2-3.7,2.8-5.9c-0.2-1.2-1-4.7-1.8-7.8c-0.8-3.2-1.6-6-1.6-6
					s-0.8-2.9-1.7-6c-0.9-3.1-2.1-6.5-2.5-7.6C100.1,19.7,98.4,19,95.4,18.1z"/>
			</g>
		</g>
	</g>
	<g>
		<g>
			<g>
				<path class="st1" d="M128.4,18c-4.2,0.4-6.7,0.8-9.8,3.3c-1.2,1-4.2,3.4-7.3,5.8c-0.8,0.6-1.6,1.2-2.3,1.7
					c-0.7,0.5-1.4,1.1-2.1,1.6c-0.7,0.5-1.5,1.1-2.2,1.6c-2.8,2-5.1,3.7-6.6,4.7c2.5,1.1,4.6,2.1,6.3,2.9c0.8,0.4,1.6,0.7,2.2,1
					c0.6,0.3,1.1,0.5,1.5,0.7c1.7,0.8,2.4,1.1,2.4,1.1s1.2,0.6,3.1,1.6c1.8,1,4.3,2.3,6.9,3.7c5.2,2.8,10.6,6.2,12.3,7.4
					c0.8,0.5,1.6,0.9,2.3,1.2c0.7,0.3,1.5,0.5,2.3,0.7c1.5,0.3,3.2,0.4,5.3,0.6c-0.2-1-0.4-2-0.7-2.8c-0.3-0.8-0.6-1.6-1.1-2.4
					c-0.4-0.7-0.9-1.4-1.5-2c-0.6-0.6-1.3-1.2-2.2-1.8c-1.8-1.3-7.5-4.8-12.9-7.7c-2.7-1.5-5.2-2.8-7.1-3.8c-1.9-1-3.1-1.6-3.1-1.6
					c0.1,0.1-0.7-0.4-0.5-0.2c0,0,0,0,0,0l0,0l0,0l0,0v0l0.1-0.1c0.8-0.6,1.6-1.2,2.4-1.8c3.2-2.4,6.3-4.9,7.5-6
					C126.6,24.7,127.5,22.1,128.4,18z"/>
			</g>
		</g>
	</g>
</g>
</svg>
