<!-- Generator: Adobe Illustrator 21.1.0, SVG Export Plug-In  -->
<svg version="1.1"
	 xmlns="http://www.w3.org/2000/svg" xmlns:xlink="http://www.w3.org/1999/xlink" xmlns:a="http://ns.adobe.com/AdobeSVGViewerExtensions/3.0/"
	 x="0px" y="0px" width="869.1px" height="665.2px" viewBox="0 0 869.1 665.2" style="enable-background:new 0 0 869.1 665.2;"
	 xml:space="preserve">
<style type="text/css">
	.st0{opacity:0.14;}
	.st1{fill:#202020;}
	.st2{fill:#FFFFFF;}
	.st3{opacity:0.5;}
</style>
<defs>
</defs>
<g>
	<g class="st0">
		<g>
			<g>
				<path d="M6.7,33.2c21.1,182.2,30,394,18.8,578c-0.5,8.5-0.9,17.8,2.6,24.8c4.7,9.4,14.3,10.5,22.6,10.7
					c264.1,5.2,528.2,10.5,792.3,15.7c5.1,0.1,11-0.3,14.3-5.8c3.1-5.3,2.5-12.9,1.8-19.7c-9.5-96.2,7.1-468.1,7.1-558.2
					c0-11.5-3.9-49-16.6-49C560,27.7,289.1,11.3,0,32.1"/>
				<g>
					<g>
						<path class="st1" d="M6.7,33.2C5.6,40.8,5.2,46,6.1,55c0.1,1.2,0.3,3,0.6,5.3c0.1,1.1,0.3,2.4,0.4,3.7
							c0.1,1.2,0.3,2.4,0.4,3.6c0.3,2.5,0.5,5,0.8,7.6c0.5,5.1,1,10.2,1.5,15.4c0.5,5.2,1.1,10.4,1.5,15.6
							c0.5,5.2,0.9,10.5,1.4,15.8c0.5,5.3,1,10.7,1.4,16c0.4,5.4,0.9,10.8,1.3,16.3c0.9,10.9,1.8,22,2.5,33.2
							c6.4,89.5,10.2,187.3,9.1,287.9c-0.3,25.2-0.8,50.5-1.8,75.9c-0.5,12.7-0.9,25.4-1.7,38.2c-0.3,6.4-0.7,12.7-1,19.1
							c-0.3,6.3-0.9,12.9,0.1,19.8c0.2,1.7,0.6,3.4,1.1,5.1c0.5,1.7,1.2,3.4,2.2,5c1.8,3.2,4.6,6,7.9,7.8c3.3,1.8,6.8,2.6,10.2,3
							c3.4,0.4,6.7,0.4,9.9,0.5c12.8,0.3,25.6,0.5,38.3,0.8c25.5,0.5,51,1,76.3,1.5c202.6,4,396,7.8,538.8,10.7
							c35.7,0.7,68.2,1.3,96.9,1.9c14.4,0.3,27.8,0.5,40.2,0.8c3.3,0,6.9-0.4,10.2-2.3c1.6-0.9,3.1-2.2,4.1-3.7
							c1.1-1.5,1.8-3.1,2.3-4.6c1-3.2,1.2-6.2,1.2-9.1c0-2.9-0.2-5.6-0.5-8.1c-0.4-5.1-0.7-9.9-1-14.4c-0.2-2.3-0.3-4.4-0.5-6.5
							c-0.1-2.1-0.2-4.2-0.2-6.1c-0.3-7.9-0.5-14.6-0.7-20c-0.2-10.8-0.3-16.6-0.3-16.6s-0.1-5.7-0.2-16.6c0-5.4,0-12.1,0-20
							c0-7.9,0-17,0.1-27.2c0.2-40.9,1.3-99.6,3.2-170.9c1-35.7,2.1-74.5,3.3-115.9c0.6-20.7,1.2-42,1.8-63.9
							c0.3-10.9,0.6-22,0.8-33.2c0.1-5.6,0.2-11.2,0.3-16.9c0.1-5.7,0.2-11.4,0.3-17.1c0-2.9,0.1-5.7,0.1-8.6c0-1.4,0-2.9,0-4.3
							c0-1.5,0-3-0.1-4.5c-0.3-5.9-1-11.8-2-17.6c-1-5.9-2.3-11.8-4.5-17.6c-0.6-1.5-1.2-2.9-2-4.3c-0.8-1.4-1.7-2.9-2.8-4.2
							c-1.1-1.3-2.6-2.7-4.6-3.5c-0.5-0.2-1-0.3-1.5-0.5c-0.5-0.1-1.1-0.2-1.6-0.2c-0.3,0-0.5,0-0.7,0l-0.6,0l-1.1,0
							c-11.9-0.1-23.8-0.2-35.9-0.3c-6-0.1-12.1-0.1-18.1-0.2c-6.1-0.1-12.2-0.2-18.3-0.3c-48.8-0.6-98.9-1.7-149.6-2.7
							c-50.6-1.1-101.9-2.1-153-3c-51.2-0.8-102.3-1.3-152.7-1.4c-12.6,0.1-25.2,0.1-37.7,0.2c-6.2,0-12.5,0-18.7,0.1
							c-6.2,0.1-12.4,0.2-18.6,0.3c-6.2,0.1-12.4,0.2-18.5,0.3c-6.2,0.1-12.3,0.1-18.4,0.3c-12.2,0.3-24.4,0.6-36.5,0.9
							c-12.1,0.2-24.1,0.8-35.9,1.2c-5.9,0.2-11.9,0.4-17.8,0.7c-5.9,0.2-11.8,0.4-17.6,0.7c-11.7,0.6-23.3,1.2-34.7,1.7
							c-5.7,0.3-11.4,0.5-17.1,0.9c-4.7,0.3-9.3,0.6-13.9,0.9c-5.9,0.4-10.8,0.7-13.2,0.9c-9,0.6-14,2-21.4,4.3
							c7.6,1.4,12.8,2.1,21.7,1.5c2.4-0.2,7.3-0.5,13.2-0.8c4.6-0.3,9.2-0.6,13.9-0.9c5.7-0.4,11.4-0.6,17.1-0.9
							c11.4-0.6,23-1.2,34.7-1.7c5.8-0.3,11.7-0.5,17.6-0.7c5.9-0.2,11.8-0.4,17.7-0.7c11.9-0.4,23.8-1,35.9-1.2
							c12.1-0.3,24.2-0.6,36.4-0.9c6.1-0.2,12.2-0.2,18.4-0.3c6.1-0.1,12.3-0.2,18.5-0.3s12.4-0.2,18.6-0.3
							c6.2-0.1,12.4-0.1,18.7-0.1c12.5-0.1,25-0.1,37.6-0.2c50.3,0.1,101.4,0.5,152.6,1.4c51.1,0.9,102.4,1.9,153,3
							c50.7,1,100.7,2.1,149.6,2.7c6.1,0.1,12.2,0.2,18.3,0.3c6.1,0.1,12.1,0.1,18.1,0.2c12.1,0.1,24,0.2,35.9,0.3l1.1,0l0.6,0
							c0.2,0,0.4,0,0.4,0c0.4,0,0.8,0.1,1.2,0.3c0.8,0.3,1.6,1,2.4,1.9c0.8,0.9,1.5,2,2.1,3.1c0.6,1.2,1.2,2.4,1.7,3.7
							c2,5.2,3.3,10.8,4.2,16.4c0.9,5.6,1.6,11.3,1.9,17c0.1,1.4,0.1,2.8,0.1,4.2c0,1.4,0,2.9,0,4.3c0,2.9-0.1,5.7-0.1,8.6
							c0,5.7-0.1,11.4-0.3,17c-0.1,5.7-0.2,11.3-0.3,16.9c-0.3,11.2-0.6,22.3-0.8,33.2c-0.6,21.9-1.2,43.2-1.8,63.9
							c-1.2,41.4-2.3,80.2-3.3,115.9c-1.9,71.4-3,130.1-3.2,171c-0.1,10.2-0.1,19.3-0.1,27.3c0,7.9,0,14.6,0,20.1
							c0.2,10.9,0.2,16.6,0.2,16.6s0.1,5.8,0.3,16.7c0.2,5.4,0.4,12.2,0.7,20.1c0.1,2,0.1,4,0.2,6.2c0.1,2.1,0.3,4.3,0.5,6.6
							c0.3,4.6,0.7,9.4,1,14.5c0.2,2.5,0.5,5.1,0.5,7.6c0,2.5-0.2,5-0.9,7.3c-0.7,2.2-2,4.1-3.8,5.1c-1.9,1.1-4.4,1.5-7.3,1.5
							c-12.3-0.2-25.7-0.5-40-0.8c-28.7-0.6-61.2-1.2-96.9-1.9c-142.8-2.8-336.2-6.7-538.8-10.7c-25.3-0.5-50.8-1-76.3-1.5
							c-12.8-0.3-25.5-0.5-38.3-0.8c-3.2-0.1-6.3-0.1-9.3-0.4c-2.9-0.4-5.7-1.1-8.1-2.4c-2.3-1.3-4.3-3.1-5.6-5.5
							c-0.7-1.2-1.2-2.5-1.6-3.8c-0.4-1.4-0.7-2.8-0.9-4.2c-0.9-5.9-0.4-12.1,0-18.5c0.3-6.4,0.7-12.8,1-19.2
							c0.8-12.8,1.2-25.5,1.7-38.3c1-25.5,1.5-50.9,1.8-76.1c1.1-100.8-2.8-198.8-9.2-288.4c-0.7-11.2-1.7-22.3-2.5-33.2
							c-0.4-5.5-0.9-10.9-1.3-16.3c-0.5-5.4-1-10.8-1.4-16.1c-0.5-5.3-1-10.6-1.4-15.9c-0.5-5.2-1-10.5-1.5-15.6
							c-0.5-5.2-1-10.3-1.5-15.4c-0.3-2.5-0.5-5.1-0.8-7.6c-0.1-1.2-0.3-2.4-0.4-3.6c-0.1-1.3-0.3-2.6-0.4-3.7
							c-0.3-2.3-0.5-4.1-0.6-5.3C10.9,45.4,9.3,40.4,6.7,33.2z"/>
					</g>
				</g>
			</g>
		</g>
	</g>
	<g>
		<g>
			<g>
				<path class="st2" d="M6.7,14.4c21.1,182.2,30,394,18.8,578c-0.5,8.5-0.9,17.8,2.6,24.8c4.7,9.4,14.3,10.5,22.6,10.7
					c264.1,5.2,528.2,10.5,792.3,15.7c5.1,0.1,11-0.3,14.3-5.8c3.1-5.3,2.5-12.9,1.8-19.7c-9.5-96.2,7.1-468.1,7.1-558.2
					c0-11.5-3.9-49-16.6-49C560,9,289.1-7.4,0,13.4"/>
				<g>
					<g>
						<path class="st1" d="M6.7,14.4c-1,7.7-1.5,12.9-0.5,21.8c0.1,1.2,0.3,3,0.6,5.3c0.1,1.1,0.3,2.4,0.4,3.7
							c0.1,1.2,0.3,2.4,0.4,3.6c0.3,2.5,0.5,5,0.8,7.6c0.5,5.1,1,10.2,1.5,15.4c0.5,5.2,1.1,10.4,1.5,15.6
							c0.5,5.2,0.9,10.5,1.4,15.8s1,10.7,1.4,16c0.4,5.4,0.9,10.8,1.3,16.3c0.9,10.9,1.8,22,2.5,33.2c6.4,89.5,10.2,187.3,9.1,287.9
							c-0.3,25.2-0.8,50.5-1.8,75.9c-0.5,12.7-0.9,25.4-1.7,38.2c-0.3,6.4-0.7,12.7-1,19.1c-0.3,6.3-0.9,12.9,0.1,19.8
							c0.2,1.7,0.6,3.4,1.1,5.1c0.5,1.7,1.2,3.4,2.2,5c1.8,3.2,4.6,6,7.9,7.8c3.3,1.8,6.8,2.6,10.2,3c3.4,0.4,6.7,0.4,9.9,0.5
							c12.8,0.3,25.6,0.5,38.3,0.8c25.5,0.5,51,1,76.3,1.5c202.6,4,396,7.8,538.8,10.7c35.7,0.7,68.2,1.3,96.9,1.9
							c14.4,0.3,27.8,0.5,40.2,0.8c3.3,0,6.9-0.4,10.2-2.3c1.6-0.9,3.1-2.2,4.1-3.7c1.1-1.5,1.8-3.1,2.3-4.6c1-3.2,1.2-6.2,1.2-9.1
							c0-2.9-0.2-5.6-0.5-8.1c-0.4-5.1-0.7-9.9-1-14.4c-0.2-2.3-0.3-4.4-0.5-6.5c-0.1-2.1-0.2-4.2-0.2-6.1c-0.3-7.9-0.5-14.6-0.7-20
							c-0.2-10.8-0.3-16.6-0.3-16.6s-0.1-5.7-0.2-16.6c0-5.4,0-12.1,0-20c0-7.9,0-17,0.1-27.2c0.2-40.9,1.3-99.6,3.2-170.9
							c1-35.7,2.1-74.5,3.3-115.9c0.6-20.7,1.2-42,1.8-63.9c0.3-10.9,0.6-22,0.8-33.2c0.1-5.6,0.2-11.2,0.3-16.9
							c0.1-5.7,0.2-11.4,0.3-17.1c0-2.9,0.1-5.7,0.1-8.6c0-1.4,0-2.9,0-4.3c0-1.5,0-3-0.1-4.5c-0.3-5.9-1-11.8-2-17.6
							c-1-5.9-2.3-11.8-4.5-17.6c-0.6-1.5-1.2-2.9-2-4.3c-0.8-1.4-1.7-2.9-2.8-4.2c-1.1-1.3-2.6-2.7-4.6-3.5c-0.5-0.2-1-0.3-1.5-0.5
							C851,8,850.5,8,849.9,7.9c-0.3,0-0.5,0-0.7,0l-0.6,0l-1.1,0c-11.9-0.1-23.8-0.2-35.9-0.3c-6-0.1-12.1-0.1-18.1-0.2
							c-6.1-0.1-12.2-0.2-18.3-0.3c-48.8-0.6-98.9-1.7-149.6-2.7c-50.6-1.1-101.9-2.1-153-3C421.5,0.5,370.4,0.1,320,0
							c-12.6,0.1-25.2,0.1-37.7,0.2c-6.2,0-12.5,0-18.7,0.1c-6.2,0.1-12.4,0.2-18.6,0.3c-6.2,0.1-12.4,0.2-18.5,0.3
							c-6.2,0.1-12.3,0.1-18.4,0.3c-12.2,0.3-24.4,0.6-36.5,0.9c-12.1,0.2-24.1,0.8-35.9,1.2c-5.9,0.2-11.9,0.4-17.8,0.7
							c-5.9,0.2-11.8,0.4-17.6,0.7C88.7,5.2,77.1,5.8,65.6,6.4c-5.7,0.3-11.4,0.5-17.1,0.9c-4.7,0.3-9.3,0.6-13.9,0.9
							c-5.9,0.4-10.8,0.7-13.2,0.9c-9,0.6-14,2-21.4,4.3c7.6,1.4,12.8,2.1,21.7,1.5c2.4-0.2,7.3-0.5,13.2-0.8
							c4.6-0.3,9.2-0.6,13.9-0.9c5.7-0.4,11.4-0.6,17.1-0.9c11.4-0.6,23-1.2,34.7-1.7c5.8-0.3,11.7-0.5,17.6-0.7
							c5.9-0.2,11.8-0.4,17.7-0.7c11.9-0.4,23.8-1,35.9-1.2C183.9,7.7,196,7.3,208.2,7c6.1-0.2,12.2-0.2,18.4-0.3
							c6.1-0.1,12.3-0.2,18.5-0.3c6.2-0.1,12.4-0.2,18.6-0.3c6.2-0.1,12.4-0.1,18.7-0.1C294.9,6,307.4,6,320,5.9
							c50.3,0.1,101.4,0.5,152.6,1.4c51.1,0.9,102.4,1.9,153,3c50.7,1,100.7,2.1,149.6,2.7c6.1,0.1,12.2,0.2,18.3,0.3
							c6.1,0.1,12.1,0.1,18.1,0.2c12.1,0.1,24,0.2,35.9,0.3l1.1,0l0.6,0c0.2,0,0.4,0,0.4,0c0.4,0,0.8,0.1,1.2,0.3
							c0.8,0.3,1.6,1,2.4,1.9c0.8,0.9,1.5,2,2.1,3.1c0.6,1.2,1.2,2.4,1.7,3.7c2,5.2,3.3,10.8,4.2,16.4c0.9,5.6,1.6,11.3,1.9,17
							c0.1,1.4,0.1,2.8,0.1,4.2c0,1.4,0,2.9,0,4.3c0,2.9-0.1,5.7-0.1,8.6c0,5.7-0.1,11.4-0.3,17c-0.1,5.7-0.2,11.3-0.3,16.9
							c-0.3,11.2-0.6,22.3-0.8,33.2c-0.6,21.9-1.2,43.2-1.8,63.9c-1.2,41.4-2.3,80.2-3.3,115.9c-1.9,71.4-3,130.1-3.2,171
							c-0.1,10.2-0.1,19.3-0.1,27.3c0,7.9,0,14.6,0,20.1c0.2,10.9,0.2,16.6,0.2,16.6s0.1,5.8,0.3,16.7c0.2,5.4,0.4,12.2,0.7,20.1
							c0.1,2,0.1,4,0.2,6.2c0.1,2.1,0.3,4.3,0.5,6.6c0.3,4.6,0.7,9.4,1,14.5c0.2,2.5,0.5,5.1,0.5,7.6c0,2.5-0.2,5-0.9,7.3
							c-0.7,2.2-2,4.1-3.8,5.1c-1.9,1.1-4.4,1.5-7.3,1.5c-12.3-0.2-25.7-0.5-40-0.8c-28.7-0.6-61.2-1.2-96.9-1.9
							c-142.8-2.8-336.2-6.7-538.8-10.7c-25.3-0.5-50.8-1-76.3-1.5c-12.8-0.3-25.5-0.5-38.3-0.8c-3.2-0.1-6.3-0.1-9.3-0.4
							c-2.9-0.4-5.7-1.1-8.1-2.4c-2.3-1.3-4.3-3.1-5.6-5.5c-0.7-1.2-1.2-2.5-1.6-3.8c-0.4-1.4-0.7-2.8-0.9-4.2
							c-0.9-5.9-0.4-12.1,0-18.5c0.3-6.4,0.7-12.8,1-19.2c0.8-12.8,1.2-25.5,1.7-38.3c1-25.5,1.5-50.9,1.8-76.1
							c1.1-100.8-2.8-198.8-9.2-288.4c-0.7-11.2-1.7-22.3-2.5-33.2c-0.4-5.5-0.9-10.9-1.3-16.3c-0.5-5.4-1-10.8-1.4-16.1
							s-1-10.6-1.4-15.9c-0.5-5.2-1-10.5-1.5-15.6c-0.5-5.2-1-10.3-1.5-15.4c-0.3-2.5-0.5-5.1-0.8-7.6c-0.1-1.2-0.3-2.4-0.4-3.6
							c-0.1-1.3-0.3-2.6-0.4-3.7c-0.3-2.3-0.5-4.1-0.6-5.3C10.9,26.6,9.3,21.7,6.7,14.4z"/>
					</g>
				</g>
			</g>
		</g>
	</g>
</g>
<g>
	<g>
		<g>
			<g>
				<path class="st1" d="M283.5,47.6c-2.2,3.2-3.3,5.4-3,9c0.3,3.9,2.4,23.3,2.4,23.3s1.9,19.5,2.4,23.3c0.4,3.6,2,5.5,4.8,8.2
					c2.2-3.2,3.3-5.4,3-9c-0.3-3.9-2.4-23.3-2.4-23.3s-1.9-19.5-2.4-23.3C287.8,52.3,286.2,50.4,283.5,47.6z"/>
			</g>
		</g>
	</g>
	<g>
		<g>
			<g>
				<path class="st1" d="M289.3,81.9c1.2,2.4,2,3.7,3.2,3.7c0.7,0,2.7-0.2,4.5-0.4c1.8-0.2,3.5-0.4,3.5-0.4s1.7-0.2,3.5-0.4
					c1.8-0.2,3.8-0.5,4.5-0.6c1.2-0.2,1.7-1.7,2.4-4.3c-1.4-2.3-2.2-3.6-3.4-3.5c-1.3,0.2-7.8,0.9-7.8,0.9s-6.5,0.6-7.8,0.7
					C290.7,77.9,290.1,79.3,289.3,81.9z"/>
			</g>
		</g>
	</g>
	<g>
		<g>
			<g>
				<path class="st1" d="M284.9,50c1.9,2.1,3.1,3.1,4.6,2.8c0.8-0.2,3.3-0.7,5.5-1.3c2.3-0.5,4.3-0.9,4.3-0.9s2.1-0.4,4.3-0.7
					c2.3-0.4,4.8-0.7,5.6-0.9c1.5-0.3,2.2-1.7,3.3-4.3c-1.6-2.3-2.7-3.6-4.3-3.4c-0.9,0.1-3.5,0.4-5.8,0.9c-2.4,0.4-4.5,0.8-4.5,0.8
					s-2.2,0.4-4.5,0.9c-2.4,0.5-4.9,1.1-5.7,1.4C286.1,45.7,285.6,47.2,284.9,50z"/>
			</g>
		</g>
	</g>
	<g>
		<g>
			<g>
				<path class="st1" d="M315,89.3c5,1.1,9.4,1.6,14.1,1.5c2.3-0.1,4.7-0.3,7.2-0.8c0.6-0.1,1.3-0.2,1.9-0.4
					c0.6-0.1,1.5-0.3,2.6-0.9c0.6-0.3,1.3-0.7,2-1.5c0.7-0.8,1.2-1.9,1.3-3.1c0.1-1.2-0.2-2.4-0.7-3.3c-0.5-0.9-1-1.4-1.6-1.9
					c-0.7-0.6-1.6-1.1-2.7-1.6c-0.1-0.1-0.3-0.1-0.4-0.2c-0.2-0.1-0.3-0.1-0.4-0.1c-0.2-0.1-0.5-0.1-0.7-0.2c-0.5-0.1-1-0.3-1.6-0.4
					c-2.3-0.4-5.4-0.7-9.2,0c-0.8,0.1-2.1,0.4-3.2,0.7c-1.1,0.3-2,0.6-2,0.6s-0.7,0.2-1.7,0.5c-0.9,0.3-2,0.8-2.8,1.1
					c-2.2,1-4.4,2.1-6.3,3.5c-1.9,1.4-3.5,3.4-4.3,5.5c-0.8,2.1-0.9,4.2-0.7,5.7c0.2,1.6,0.6,2.7,1,3.7c1.6,3.7,4.1,6,6.5,7.6
					c2.5,1.6,5.1,2.6,7.8,2.9c2.7,0.3,5.4-0.2,7.6-1.4c2.3-1.1,4.3-3,5.4-5.3c-2.1,1.5-4.3,2.1-6.3,2.2c-2,0.1-3.8-0.3-5.5-1
					c-1.7-0.7-3.2-1.7-4.7-3.1c-1.5-1.4-2.9-3-3.7-4.9c-0.4-0.9-0.7-2.2-0.2-3.4c0.3-0.6,0.8-1.4,1.8-2.2c1.1-0.8,2.6-1.7,4.6-2.5
					c0.7-0.3,1.6-0.7,2.3-0.9c0.8-0.3,1.4-0.5,1.4-0.5s0.7-0.2,1.6-0.4c0.9-0.2,1.9-0.4,2.5-0.5c2.9-0.5,5-0.3,6.5,0
					c0.4,0.1,0.7,0.1,1,0.2c0.2,0,0.3,0.1,0.5,0.1c0.1,0,0.1,0,0.1,0c0,0,0.1,0,0.1,0c0.2,0.1,0.4,0.2,0.4,0.2c0,0,0,0,0.1-0.1
					c0.1-0.1,0.2-0.2,0.4-0.4c0.2-0.2,0.5-0.4,0.7-0.5c0.4-0.3,0.7-0.2,0.6-0.2l-0.1,0c0,0-0.1,0-0.1,0l0,0l0,0c0,0,0.2,0.1,0.1,0h0
					l0,0c0,0-0.1,0-0.2-0.1c-0.1-0.1-0.3-0.3-0.5-0.5c-0.1-0.1-0.2-0.3-0.3-0.5l-0.2-0.3c-0.1-0.1-0.2-0.3-0.1-0.2
					c0,0-0.4,0.2-1.1,0.4c-0.6,0.2-1.2,0.4-1.7,0.6c-2.2,0.8-4.3,1.5-6.4,2.2C323.9,86.5,319.9,87.9,315,89.3z"/>
			</g>
		</g>
	</g>
	<g>
		<g>
			<g>
				<path class="st1" d="M349,86.8c5,1.2,9.4,1.8,14,1.8c4.6,0,9.5-0.5,15.5-2.2c0.8-0.2,1.7-0.5,3.3-1c0.8-0.3,1.8-0.6,3-1.3
					c1.2-0.6,2.7-1.6,4.1-3.5l-0.3-4.9c-0.9-0.9-2-1.9-3.8-2.6c-1.6-0.6-3.5-0.9-5.4-0.9c-0.5,0-0.9,0-1.4,0c-0.4,0-0.9,0.1-1.3,0.1
					c-0.9,0.1-1.7,0.2-2.5,0.3c-3.3,0.5-5.9,1.2-5.9,1.2s-2.2,0.5-5,1.6c-2.8,1-6,2.6-8.1,3.9c-1.1,0.6-2.1,1.3-3,1.9
					c-0.9,0.6-1.8,1.3-2.7,2.1c-1.7,1.5-3.2,3.2-4.1,5.3c-0.9,2.1-1.1,4.4-0.6,6.2c0.4,1.8,1.3,3.1,2,4c1.4,1.8,3,2.8,4.5,3.6
					c1.5,0.8,2.9,1.3,4.2,1.6c2.5,0.7,4.9,1.2,7.2,1.4c4.6,0.5,9.1,0.2,14.2-0.7c-4.9-1.5-8.8-3.2-12.8-4.8c-2-0.8-4-1.7-6.2-2.7
					c-1.1-0.5-2-0.9-2.9-1.5c-0.9-0.5-1.7-1.2-2.1-1.8c-0.2-0.3-0.4-0.6-0.5-0.9c-0.1-0.3-0.1-0.7,0.2-1.3c0.3-0.6,0.9-1.5,2.1-2.5
					c1.1-0.9,2.8-2.1,4.5-3.1c1.8-1.1,4.5-2.4,6.9-3.3c2.3-0.9,4.2-1.3,4.2-1.3s2.2-0.6,5-1c0.7-0.1,1.4-0.2,2.1-0.2
					c0.4,0,0.7-0.1,1.1-0.1c0.3,0,0.7,0,1,0c1.2,0,2.1,0.2,2.6,0.3c0.5,0.2,0.6,0.3,0.7,0.4l-0.3-4.9c-0.5,0.8-2,1.5-3.2,1.9
					c-1.2,0.4-2.2,0.7-2.9,0.9c-5.6,1.6-9.9,2.8-14.1,4C358,84.1,354,85.4,349,86.8z"/>
			</g>
		</g>
	</g>
	<g>
		<g>
			<g>
				<path class="st1" d="M410.5,39.2c-0.4,10.3-0.3,17.3,2.3,29c0.4,2,1.2,5.2,2.7,11.9c0.9,3.7,2.1,9,3.3,13.8
					c0.6,2.4,1.2,4.7,1.6,6.6c0.2,0.9,0.5,1.8,0.6,2.5c0,0.2,0.1,0.3,0.1,0.5l0,0.1l0,0c-1.6,0.4,14.4-3.7,7.6-2l0,0l0,0l0,0l0-0.1
					c0-0.1,0-0.2-0.1-0.2c-0.1-0.3-0.2-0.6-0.2-0.8l0,0c-0.8-2.5-1.7-4.5-2.5-6c-0.2-0.4-0.4-0.7-0.6-1.1c-0.2-0.3-0.4-0.6-0.6-0.9
					c-0.4-0.6-0.7-1.1-1-1.5c-0.6-0.8-1-1.4-1.3-1.7c-0.3-0.3-0.4-0.5-0.4-0.5s-1-1.2-2.8-2.9c-1.9-1.7-4.7-3.8-8.3-5.5
					c-1.8-0.8-3.8-1.6-5.9-2.1c-1-0.3-2.1-0.5-3.6-0.6c-0.7,0-1.5,0-2.4,0.2c-0.8,0.2-1.6,0.5-2.3,0.9c-1.3,0.7-2.3,1.6-3.1,2.4
					c-0.8,0.8-1.4,1.5-2.1,2.3c-1.3,1.6-2.3,3.2-3.1,4.7c-0.3,0.6-0.6,1.1-0.9,1.7c-0.3,0.6-0.5,1.3-0.7,1.9
					c-0.4,1.3-0.7,2.9-0.5,4.6c0.2,1.7,1,3.4,2.1,4.5c1.1,1.2,2.3,1.8,3.3,2.3c2.1,0.8,3.6,0.9,4.9,1.1c0.7,0.1,1.2,0.1,1.7,0.1
					c0.5,0,0.9,0,1.3,0c6.2,0.1,11.1-0.6,15.5-1.7c4.5-1.2,8.5-2.8,13.1-5.2c-5.2-0.1-9.4-0.4-13.8-0.5c-4.4-0.2-8.9-0.3-14.7-0.4
					c-1.4-0.1-3.7,0-5.1-0.6c-0.3-0.1-0.5-0.3-0.5-0.3c-0.1-0.1-0.1,0-0.1-0.2c0-0.2,0-0.6,0.2-1.2c0.1-0.3,0.2-0.7,0.4-1
					c0.2-0.4,0.4-0.8,0.6-1.3c0.6-1.1,1.4-2.3,2.3-3.5c0.5-0.6,1-1.2,1.5-1.7c0.5-0.5,1-0.9,1.3-1c0.3-0.2,0.3-0.2,0.8-0.2
					c0.4,0,1.1,0.1,1.9,0.3c1.6,0.3,3,0.9,4.4,1.5c2.7,1.3,4.9,2.9,6.3,4.2c0.7,0.6,1.2,1.2,1.6,1.6c0.4,0.4,0.5,0.6,0.5,0.6
					s0.1,0.1,0.3,0.4c0.2,0.2,0.5,0.7,1,1.3c0.2,0.3,0.5,0.7,0.8,1.1c0.1,0.2,0.3,0.5,0.5,0.7c0.1,0.3,0.3,0.5,0.5,0.8
					c0.7,1.1,1.3,2.6,1.9,4.5h0c0,0.2,0.1,0.4,0.2,0.6c0,0.1,0,0.1,0.1,0.2l0,0l0,0l0,0l0,0c-6.8,1.7,9.2-2.4,7.6-2l0,0l0-0.1
					c0-0.2-0.1-0.3-0.1-0.5c-0.2-0.7-0.4-1.5-0.6-2.5c-0.5-1.9-1-4.1-1.6-6.5c-1.2-4.8-2.4-10.1-3.3-13.8c-1.6-6.7-2.3-9.9-2.8-11.8
					C417.6,54.9,414.9,48.5,410.5,39.2z"/>
			</g>
		</g>
	</g>
	<g>
		<g>
			<g>
				<path class="st1" d="M435,44.5c-1,5.1-1.6,9.4-1.8,13.9c-0.2,4.5,0.1,9.4,1.1,15.4c0.4,2,0.9,5.4,2.5,12.2
					c0.3,1.3,0.7,2.9,1.1,4.5c0.2,0.8,0.4,1.6,0.6,2.3c0.1,0.4,0.2,0.7,0.3,1c0,0.2,0.1,0.3,0.1,0.5l0,0.1l0,0c15.4-2,4.3-0.5,7.7-1
					l0,0v0l0,0l0,0l0-0.1l0-0.2c0.1-4.1,0.1-7.8,0.2-10.4c0-0.7,0-1.3,0-1.8c0-0.1,0-0.3,0-0.4c0-0.1,0,0,0,0l0,0l0,0l0,0l0,0
					c0,0-0.1,0,0.1,0c0.2,0,0.3,0,0.5,0c0.7,0,1.5,0,2.3,0.1c1.7,0.2,3.6,0.9,5.3,1.9c1.7,0.9,3.4,2.2,4.7,3.3
					c0.9,0.7,1.6,1.5,2.4,2.2c0.4,0.4,0.7,0.7,1,1l0.2,0.2l0,0l0,0c0,0,0,0,0,0c0,0,0,0,0,0l0,0h0c-0.1,0.1-0.2,0.1-0.3,0.2
					c-1.1,0.6-1.8,0.9-2.4,1.3c-5.2,2.7-9.3,4.9-13.1,7.2c-2,1.2-3.5,2.3-5.2,2.9c-0.4,0.1-0.9,0.2-1.3,0.2c-0.5,0-0.9,0-1.4-0.2
					c-1-0.3-2-0.9-2.5-2.1c-0.2,1.3,0.5,2.7,1.5,3.6c0.5,0.5,1.1,0.9,1.7,1.2c0.6,0.3,1.4,0.5,2,0.6c1.4,0.2,2.7,0.1,3.9-0.1
					c1.2-0.2,2.4-0.5,3.4-0.8c4.4-1.2,8.9-2.8,14.4-5.5c0.6-0.3,1.4-0.7,2.5-1.3c0.5-0.2,1-0.5,1.5-0.8c0.3-0.2,0.7-0.4,1-0.6
					c0.4-0.2,0.6-0.4,1-0.7c1.5-1,2.5-2.1,2.6-4.3c0-0.3,0-0.9-0.2-1.7c-0.1-0.4-0.5-0.9-0.7-1.4c-0.4-0.5-0.9-1.1-1.5-1.7
					c-0.5-0.5-1.1-1.1-1.7-1.7c-0.4-0.4-0.7-0.7-1.1-1.1c-0.8-0.8-1.7-1.7-2.7-2.5c-1.6-1.4-3.6-3-6.1-4.3c-2.4-1.3-5.2-2.3-7.9-2.7
					c-1.3-0.2-2.7-0.3-3.9-0.2c-0.3,0-0.6,0-0.9,0.1c-0.3,0-0.8,0.1-1.2,0.2c-0.8,0.1-1.6,0.3-2.2,0.6c-1.2,0.5-2,1.4-2.4,2
					c-0.4,0.6-0.6,1-0.6,1s-0.1,0.2-0.2,0.5c-0.1,0.3-0.3,0.9-0.4,1.6c0,0.4-0.1,0.8-0.1,1.2c0,0.3,0,0.7,0,1c0,0.5,0,1.1,0,1.8
					c0,2.6-0.1,6.3-0.2,10.4v0l0,0.2l0,0.1l0,0l0,0v0v0c3.4-0.4-7.7,1,7.7-1l0,0l0-0.1c0-0.1-0.1-0.3-0.1-0.5
					c-0.1-0.3-0.2-0.6-0.3-1c-0.2-0.7-0.4-1.4-0.6-2.2c-0.4-1.5-0.8-3.1-1.1-4.3c-1.5-6.6-2.1-9.8-2.4-11.7
					c-1.1-5.8-2-10.3-3.1-14.6C437.7,53.5,436.4,49.5,435,44.5z"/>
			</g>
		</g>
	</g>
	<g>
		<g>
			<g>
				<path class="st1" d="M495.9,74.2c-0.8-1-2-1.8-3.2-2.2c-1.2-0.5-2.6-0.6-3.8-0.6c-2.5,0-5,0.7-7.2,1.6
					c-4.4,1.8-8.8,4.7-13.1,9.8c-0.3,0.4-0.8,0.9-1.2,1.5c-0.2,0.3-0.5,0.6-0.7,1c-0.3,0.4-0.6,0.8-0.9,1.3c-0.6,1-1.3,2.2-1.9,3.8
					c-0.3,0.8-0.5,1.8-0.7,2.9c-0.1,1.1-0.1,2.5,0.3,3.9c0.3,1,0.9,2.2,1.7,3.3c0.9,1.1,2.1,1.9,3.2,2.4c1.2,0.6,2.3,0.9,3.4,1.1
					c1.1,0.2,2,0.4,3,0.5c2,0.2,3.8,0.2,5,0.1c1.3-0.1,2.1-0.2,2.1-0.2s0.7-0.1,1.7-0.3c1.1-0.2,2.6-0.5,4.2-1c3.3-1,7-2.7,9.4-4.4
					c2.2-1.4,4.2-3.2,5.6-5.3c0.7-1.1,1.3-2.2,1.7-3.4c0.4-1.2,0.6-2.5,0.5-3.6c-0.2-4.5-2.7-7.6-5.2-8.8c-0.6-0.3-1.3-0.6-1.9-0.7
					l-0.2-0.1l-0.1,0l-0.1,0l0,0l0,0c-2,1.9,4.5-4.2-4.6,4.2l0.1,0.6l0.1,0.3l0.1,0.2l0.1,0.4c0.3,1,0.7,1.7,1,2.4
					c0.7,1.4,1.4,2.5,2.1,3.6c1.5,2.2,3,4,4.5,5.7c1.6,1.7,3.2,3.3,5.1,4.7c0.9,0.7,1.9,1.4,3,2c0.5,0.3,1.1,0.6,1.7,0.8
					c0.6,0.2,1.4,0.4,2,0.1c-0.7,0-1.1-0.5-1.5-0.9c-0.4-0.4-0.7-0.9-1.1-1.4c-0.6-0.9-1.2-1.9-1.7-2.9c-1-1.9-2-3.9-2.9-5.8
					c-1-2-1.9-3.9-3-6.1c-0.5-1.1-1-2.2-1.5-3.2c-0.2-0.5-0.4-1.1-0.5-1.4l0-0.1l0,0l0,0l0,0c0,0-0.1,0-0.2,0
					c-0.5,0.1-1.1,0.2-1.6,0.2c-5.6,8.1-1.5,2.2-2.8,4l0,0l0,0l0,0l0,0l0,0c0,0,0.1,0,0.1,0.1c0.1,0.1,0.3,0.2,0.5,0.5
					c0.2,0.3,0.5,1,0.5,1.6c0,0.4,0,0.6-0.1,1c-0.1,0.4-0.4,0.9-0.7,1.4c-0.6,1-1.8,2.1-3.4,3.1c-1.9,1.2-4.9,2.7-7.4,3.5
					c-1.3,0.4-2.4,0.6-3.3,0.8c-0.8,0.1-1.3,0.2-1.3,0.2s-0.6,0.1-1.6,0.1c-1,0.1-2.3,0.1-3.8-0.1c-0.7-0.1-1.5-0.2-2.2-0.3
					c-0.7-0.1-1.3-0.3-1.6-0.5c-0.8-0.4-0.8-0.6-0.9-0.8c-0.1-0.3,0-1.2,0.3-2c0.3-0.8,0.7-1.6,1.1-2.3c0.2-0.3,0.4-0.6,0.6-0.9
					c0.2-0.3,0.4-0.6,0.6-0.8c0.4-0.5,0.7-0.9,1-1.3c3.5-4.2,6.7-7.1,9.9-9.8c1.6-1.3,3.2-2.4,5-3.3
					C491.3,73.8,493.5,73.2,495.9,74.2z"/>
			</g>
		</g>
	</g>
	<g>
		<g>
			<g>
				<path class="st1" d="M523.4,66.7c-1.7-1.1-3.6-1.7-5.4-1.6c-1.8,0-3.8,0.7-5.7,2.2c-1,0.8-3,2.7-4.5,5.6
					c-0.8,1.5-1.4,3.2-1.7,5.1c-0.3,1.9-0.3,3.8,0.1,5.7c0.3,1.8,0.9,3.6,1.7,5.1c0.8,1.5,1.7,2.8,2.5,3.8c0.9,1,1.7,1.7,2.3,2.2
					c0.6,0.5,1,0.7,1,0.7s0.4,0.2,1,0.6c0.7,0.4,1.7,0.9,2.9,1.3c2.5,0.9,5.8,1.2,8.8,1.2c6.1,0.2,12.7-0.4,14.8-0.7
					c4-0.5,6.1-2.3,8.8-5.4c-3.7-1.8-6-2.8-9.7-2.4c-2,0.2-8.1,0.8-13.8,0.6c-2.8,0-5.1-0.3-6.5-0.8c-0.7-0.2-1.2-0.5-1.5-0.7
					c-0.3-0.2-0.5-0.3-0.5-0.3s-0.2-0.1-0.5-0.4c-0.3-0.3-0.8-0.7-1.3-1.2c-0.5-0.6-1-1.3-1.4-2.1c-0.4-0.9-0.8-1.9-0.9-2.9
					c-0.4-2.1,0-4.2,0.9-5.8c0.9-1.7,2-2.8,2.6-3.3c1.1-1,1.9-1.8,2.8-2.9C521,69.4,521.9,68.1,523.4,66.7z"/>
			</g>
		</g>
	</g>
	<g>
		<g>
			<g>
				<path class="st1" d="M528.5,40.4c-1.5,3.8-2.1,6.4-0.9,10.2c0.6,2.1,2.7,8.2,4.9,13.7c1.1,2.8,2.1,5.4,2.9,7.3
					c0.8,1.9,1.3,3.2,1.3,3.2s0.5,1.2,1.4,3.1c0.8,1.9,2,4.5,3.3,7.1c2.5,5.3,5.6,11,6.6,12.9c2,3.5,4.3,4.8,8.1,6.3
					c0.5-4.1,0.6-6.6-1.2-10c-1-1.8-3.9-7.4-6.4-12.6c-1.3-2.6-2.4-5.1-3.2-6.9c-0.8-1.9-1.4-3-1.4-3s-0.5-1.2-1.3-3.1
					c-0.8-1.9-1.8-4.4-2.8-7.1c-2.1-5.4-4.1-11.3-4.8-13.3C533.7,44.5,531.8,42.8,528.5,40.4z"/>
			</g>
		</g>
	</g>
	<g>
		<g>
			<g>
				<path class="st1" d="M568.6,64.7c-4.6-0.1-7.5,0.1-11.4,2.6c-1.6,1-5.7,3.7-9.6,6.4c-1,0.7-2,1.4-2.9,2
					c-1.2,0.8-2.3,1.6-3.4,2.4c-3.2,2.3-5.9,4.2-7.3,5.3c0.4,0.6,0.7,1.2,1,1.8c0.4,0.8,0.7,1.4,1,1.8c0.6,0.9,1.3,1.5,2,1.9
					c1.8,0.6,2.3,0.8,2.3,0.8s0.6,0.2,1.8,0.7c0.6,0.2,1.4,0.4,2.4,0.6c0.6,0.1,1.4,0.3,2.2,0.5c2.4,0.5,5.7,1.1,9,1.7
					c3.3,0.6,6.8,1.2,9.6,1.9c2.9,0.6,5.1,1.3,6.2,1.7c1,0.3,1.9,0.6,2.9,0.7c0.9,0.2,1.7,0.2,2.6,0.3c0.9,0,1.7,0,2.7-0.1
					c0.9,0,2-0.1,3.1-0.2c-2.1-4.1-4.3-6.6-8.9-8.1c-1.2-0.4-3.8-1.2-6.8-1.9c-3.1-0.7-6.6-1.4-10-2c-3.4-0.6-6.5-1.1-8.9-1.6
					c-0.3-0.1-0.6-0.1-0.8-0.2l-0.2,0l0,0l0,0c0,0,0,0,0,0l0,0c0,0,0,0,0,0c0,0,0,0,0,0c1.4-1,3.1-2.2,4.8-3.3
					c3.9-2.7,7.9-5.3,9.4-6.3C565.2,71.4,566.6,68.9,568.6,64.7z"/>
			</g>
		</g>
	</g>
</g>
<g class="st3">
	<g>
		<g>
			<g>
				<path class="st1" d="M191.1,184.2c0.1,5.2,0.2,9.5,0.7,13.9c0.5,4.5,1.3,9.1,2.7,14.9c0.5,2,1.2,5.2,2.8,11.8
					c2.9,11.9,7.5,32.1,11,49.4c1.7,8.6,3.3,16.5,4.4,22.3c1.1,5.7,1.8,9.3,1.8,9.3s0.5,3,1.4,7.9c0.9,4.9,2,11.7,3.3,19.4
					c2.5,15.4,5.2,34.1,7,47.5c1.1,9.1,1.9,14.7,2.2,17.6c0.7,5.9,1.6,10.5,2.7,14.9c1.1,4.3,2.5,8.4,4.3,13.3
					c0.7-5.1,1.2-9.4,1.4-13.9c0.2-4.5,0-9.2-0.7-15.2c-0.3-3-1-8.6-2.2-17.7c-1.8-13.5-4.5-32.3-7-47.7c-1.3-7.7-2.4-14.6-3.3-19.5
					c-0.9-4.9-1.4-8-1.4-8s-0.7-3.6-1.7-9.4c-1.1-5.8-2.6-13.7-4.4-22.4c-3.5-17.4-8.1-37.7-11-49.7c-1.6-6.7-2.4-9.9-2.9-11.9
					c-1.5-5.8-3-10.3-4.7-14.5C195.6,192.6,193.6,188.8,191.1,184.2z"/>
			</g>
		</g>
	</g>
	<g>
		<g>
			<g>
				<path class="st1" d="M627.4,182.6c-0.6,5.1-1,9.4-1.1,13.9c-0.1,4.5,0.1,9.2,0.8,15.1c0.2,2,0.6,5.3,1.3,12.1
					c1.3,12.1,3.2,32.4,4.5,49.8c0.6,8.7,1.2,16.6,1.5,22.4c0.3,5.8,0.5,9.4,0.5,9.4s0.1,3,0.4,7.9c0.3,4.9,0.5,11.8,0.8,19.5
					c0.5,15.4,0.8,34.1,0.8,47.4c0,9.1-0.1,14.8-0.1,17.8c-0.1,6,0.2,10.7,0.8,15.1c0.5,4.5,1.4,8.7,2.5,13.7
					c1.4-5,2.4-9.2,3.2-13.6c0.8-4.4,1.2-9.1,1.3-15.2c0.1-3,0.1-8.7,0.1-17.8c0-13.4-0.3-32.2-0.8-47.7c-0.3-7.7-0.5-14.6-0.8-19.6
					c-0.2-5-0.4-8-0.4-8s-0.2-3.6-0.5-9.4c-0.3-5.8-0.8-13.8-1.4-22.5c-1.2-17.5-3.2-37.9-4.5-50.1c-0.8-6.8-1.1-10.1-1.4-12.2
					c-0.7-6-1.6-10.6-2.8-14.9C630.8,191.4,629.3,187.4,627.4,182.6z"/>
			</g>
		</g>
	</g>
	<g>
		<g>
			<g>
				<path class="st1" d="M616.9,181.4c-9.6,3.7-16,6.5-25.8,13.3c-4.1,2.8-12.3,8.5-22.3,15.5c-17.9,12.3-38.9,26.9-59.2,40.7
					c-40.4,27.7-77.5,52.4-77.5,52.4s-37,24.8-78,51.7c-10.2,6.7-20.7,13.6-30.9,20.2c-10.1,6.6-20,13-29,18.9
					c-6.6,4.3-12.1,7.9-14.8,9.6c-10,6.6-15,11.4-22.1,18.9c9.8-3.3,16.2-5.9,26.3-12.4c2.7-1.8,8.2-5.3,14.8-9.6
					c9-5.9,18.9-12.3,29-18.9c10.2-6.7,20.7-13.6,30.9-20.3c41-26.9,78-51.7,78-51.7s37.1-24.7,77.6-52.4
					c20.3-13.8,41.4-28.4,59.2-40.7c10-7,18.2-12.7,22.3-15.6C605.3,194.2,610.1,189.2,616.9,181.4z"/>
			</g>
		</g>
	</g>
	<g>
		<g>
			<g>
				<path class="st1" d="M185.6,181.4c10.1,2.2,16.9,3.3,28.9,3c5.1-0.2,15.4-0.5,27.8-0.8c22.7-0.6,49.4-1.4,75-2
					c51.2-1.3,97.7-2,97.7-2s46.5-0.8,97.7-1.3c12.8-0.1,25.9-0.2,38.6-0.3c12.6-0.1,24.9-0.1,36.2-0.2c7.9,0,14.4-0.1,17.7-0.1
					c12-0.1,18.8-1.4,28.8-4c-10-2.5-16.8-3.8-28.8-3.8c-3.2,0-9.7,0-17.7,0c-11.3,0.1-23.6,0.1-36.2,0.2
					c-12.7,0.1-25.8,0.2-38.6,0.3c-51.2,0.5-97.8,1.3-97.8,1.3s-46.6,0.7-97.8,2c-25.6,0.6-52.4,1.3-75.1,2
					c-12.5,0.4-22.7,0.7-27.8,0.9C202.3,177,195.5,178.6,185.6,181.4z"/>
			</g>
		</g>
	</g>
	<g>
		<g>
			<g>
				<path class="st1" d="M247.1,428.3c10,2.4,16.8,3.7,28.8,3.7c4.8,0,14.3-0.1,26-0.1c20-0.1,43.6-0.1,66.2-0.1
					c45.2,0.1,86.2,0.6,86.2,0.6s41.1,0.5,86.2,1.4c11.3,0.3,22.8,0.5,34.1,0.8c11.1,0.3,22,0.6,31.9,0.8c7.9,0.2,14.4,0.4,17.7,0.5
					c12,0.3,18.8-0.9,28.9-3.1c-9.9-2.8-16.7-4.3-28.7-4.7c-3.2-0.1-9.7-0.3-17.7-0.5c-9.9-0.3-20.8-0.5-31.9-0.8
					c-11.2-0.2-22.8-0.5-34.1-0.8c-45.2-1-86.3-1.4-86.3-1.4s-41.1-0.6-86.3-0.6c-22.6-0.1-46.2,0-66.3,0c-11.7,0.1-21.2,0.1-26,0.2
					C263.9,424.3,257.1,425.8,247.1,428.3z"/>
			</g>
		</g>
	</g>
	<g>
		<g>
			<g>
				<path class="st1" d="M213.2,195.8c8,6.5,13.6,10.7,24.3,15.8c4.8,2.4,14.5,7.2,26.4,13c22.3,11.2,48.5,24.7,73.3,38.1
					c3.1,1.7,6.2,3.3,9.3,5c3.1,1.7,6.1,3.3,9.1,4.9c6,3.3,11.8,6.4,17.4,9.5c11.1,6.2,21.4,11.8,30.1,16.6
					c17.3,9.7,28.5,16,28.5,16s44.6,25.3,93.7,53.1c12.3,6.9,24.9,14,37.1,20.9c6.1,3.4,12.2,6.8,18.1,10c2.9,1.6,5.8,3.2,8.7,4.8
					c2.8,1.5,5.5,3,8.1,4.5c7,3.8,12.7,6.9,15.5,8.5c10.6,5.6,17.2,7.7,27.2,10.2c-7.6-6.9-13-11.3-23.5-17.1
					c-2.8-1.6-8.5-4.7-15.5-8.5c-2.7-1.5-5.4-2.9-8.1-4.5c-2.8-1.6-5.7-3.2-8.7-4.8c-5.9-3.3-11.9-6.6-18-10
					c-12.2-6.9-24.8-14-37.1-20.9c-49.1-27.8-93.8-53.1-93.8-53.1s-11.2-6.3-28.5-16c-8.7-4.8-19-10.5-30.1-16.7
					c-5.6-3.1-11.4-6.2-17.4-9.5c-3-1.6-6-3.3-9.1-4.9c-3.1-1.6-6.2-3.3-9.3-5c-24.8-13.4-51.1-26.9-73.5-38.2
					c-7.5-3.7-14.4-7.1-20.1-9.9c-2.7-1.3-4.9-2.4-6.4-3.1C230.1,199.5,223.3,197.8,213.2,195.8z"/>
			</g>
		</g>
	</g>
</g>
</svg>
